# xmcd CD database file
#
# Track frame offsets:
#	150
#	18600
#	32475
#	46875
#	56775
#	70500
#	84900
#	96975
#	113250
#	128700
#	147225
#	160050
#	171600
#	185100
#
# Disc length: 2681 seconds
#
# Revision: 2
# Processed by: cddbd v1.5.2PL0 Copyright (c) Steve Scherf et al.
# Submitted via: CDex 1.70beta2
#
DISCID=b80a770e
DTITLE=Vera Martinova - GOLD
DYEAR=2003
DGENRE=Country
TTITLE0=O, Pane nas
TTITLE1=Kun, co vyhral nejslavnejsi steeplechase
TTITLE2=Posledni rallye
TTITLE3=Vsem pristim dnum
TTITLE4=Jezdec z neznama
TTITLE5=Tentokrat nam neujede vlak
TTITLE6=Ja mam karu
TTITLE7=Ja znam Tvy rana
TTITLE8=Jak se zname
TTITLE9=Prani
TTITLE10=Vrat se na kazdej pad
TTITLE11=Cehy nebo hot
TTITLE12=Zadnej hacek
TTITLE13=Naruc planech ruzi
EXTD=YEAR: 2003
EXTT0=
EXTT1=
EXTT2=
EXTT3=
EXTT4=
EXTT5=
EXTT6=
EXTT7=
EXTT8=
EXTT9=
EXTT10=
EXTT11=
EXTT12=
EXTT13=
PLAYORDER=
